<svg xmlns="http://www.w3.org/2000/svg" width="682.667" height="682.667" preserveAspectRatio="xMidYMid meet" version="1.0" viewBox="0 0 512 512"><g fill="rgba(0, 0, 0, 0.65)" stroke="none"><path d="M34 4446 l-34 -34 0 -1852 0 -1852 34 -34 34 -34 2492 0 2492 0 34 34 34 34 0 252 0 252 -34 34 -34 34 -2206 0 -2206 0 0 1566 0 1566 -34 34 -34 34 -252 0 -252 0 -34 -34z" transform="translate(0.000000,512.000000) scale(0.100000,-0.100000)"/><path d="M1868 4135 c-20 -11 -147 -216 -468 -749 l-440 -734 0 -526 0 -526 1920 0 c1056 0 1920 3 1920 8 0 4 -204 432 -453 952 -406 848 -456 947 -487 968 -68 46 -73 43 -535 -265 -231 -153 -425 -283 -432 -286 -8 -5 -157 185 -446 570 -284 379 -443 582 -461 591 -36 16 -85 15 -118 -3z" transform="translate(0.000000,512.000000) scale(0.100000,-0.100000)"/></g></svg>