<svg xmlns="http://www.w3.org/2000/svg" xmlns:xlink="http://www.w3.org/1999/xlink" width="14" height="20" version="1.1" viewBox="0 0 14 20"><title>Location</title><desc>Created with Sketch.</desc><defs><polygon id="path-1" points="0 0 14 0 14 20 0 20"/></defs><g id="Location" fill="none" fill-rule="evenodd" stroke="none" stroke-width="1"><g id="Page-1"><path id="Fill-1" fill="#1890FF" d="M6.9997,0.0001 C3.1347,0.0001 -0.0003,3.1341 -0.0003,7.0001 C-0.0003,12.2501 6.9997,20.0001 6.9997,20.0001 C6.9997,20.0001 13.9997,12.2501 13.9997,7.0001 C13.9997,3.1341 10.8657,0.0001 6.9997,0.0001 M6.9997,9.5001 C5.6187,9.5001 4.4997,8.3811 4.4997,7.0001 C4.4997,5.6191 5.6187,4.5001 6.9997,4.5001 C8.3807,4.5001 9.4997,5.6191 9.4997,7.0001 C9.4997,8.3811 8.3807,9.5001 6.9997,9.5001"/></g></g></svg>