<svg xmlns="http://www.w3.org/2000/svg" width="15%" height="15%" fill-rule="evenodd" stroke-linejoin="round" stroke-miterlimit="1.414" clip-rule="evenodd" viewBox="0 0 512 512"><path fill="#001358" fill-opacity="0" stroke="#001358" stroke-width="5" d="M510.35 256L415 351.42h-.17C374 310.76 318 285.5 256 285.5c-62 0-118.09 25.26-158.93 65.92h-.17L1.65 256 256 1.65 510.35 256z" class="JVlbXHZN_0" transform="matrix(.78361 0 0 .80235 55.395 50.594)"/><path fill="#1890FF" fill-opacity="0" stroke="#1890FF" stroke-width="5" d="M386.86 379.54L256.09 510.31 125.15 379.54A183.26 183.26 0 0 1 256 325.29c8.748-.014 17.486.588 26.15 1.8a183.036 183.036 0 0 1 104.71 52.45z" class="JVlbXHZN_1" transform="matrix(.78361 0 0 .80235 55.395 50.594)"/><style>@keyframes JVlbXHZN_fade{0%,77.27272727272728%{stroke-opacity:1}}@keyframes JVlbXHZN_draw_0{13.636363636363635%{stroke-dashoffset:1344}45%,60%{fill-opacity:0}72.72727272727273%{stroke-dashoffset:0}80%{fill-opacity:1}}@keyframes JVlbXHZN_draw_1{13.636363636363635%{stroke-dashoffset:662}45%,60%{fill-opacity:0}72.72727272727273%{stroke-dashoffset:0}80%{fill-opacity:1}}.JVlbXHZN_0{stroke-dasharray:1343 1345;stroke-dashoffset:1344;animation:JVlbXHZN_draw_0 2200ms ease-in-out 0ms infinite,JVlbXHZN_fade 2200ms linear 0ms infinite}.JVlbXHZN_1{stroke-dasharray:661 663;stroke-dashoffset:662;animation:JVlbXHZN_draw_1 2200ms ease-in-out 0ms infinite,JVlbXHZN_fade 2200ms linear 0ms infinite}</style></svg>